<svg xmlns="http://www.w3.org/2000/svg" version="1.1" width="200px" height="200px" style="shape-rendering:geometricPrecision; text-rendering:geometricPrecision; image-rendering:optimizeQuality; fill-rule:evenodd; clip-rule:evenodd" xmlns:xlink="http://www.w3.org/1999/xlink">
<g><path style="opacity:1" fill="#20014c" d="M 23.5,-0.5 C 73.8333,-0.5 124.167,-0.5 174.5,-0.5C 187.392,2.72476 195.725,10.7248 199.5,23.5C 199.5,73.8333 199.5,124.167 199.5,174.5C 196.275,187.392 188.275,195.725 175.5,199.5C 124.5,199.5 73.5,199.5 22.5,199.5C 14.3688,196.207 7.86882,190.873 3,183.5C 1.89744,180.02 0.73077,176.687 -0.5,173.5C -0.5,123.5 -0.5,73.5 -0.5,23.5C 0.739932,20.976 1.9066,18.3093 3,15.5C 7.97037,7.68697 14.8037,2.35363 23.5,-0.5 Z"/></g>
<g><path style="opacity:1" fill="#efedf2" d="M 66.5,159.5 C 80.6319,145.869 94.6319,132.035 108.5,118C 111,117.833 112.167,119 112,121.5C 107.963,125.369 104.13,129.369 100.5,133.5C 88.3959,146.105 76.0625,158.605 63.5,171C 89.4979,171.5 115.498,171.667 141.5,171.5C 139.464,163.646 138.464,155.646 138.5,147.5C 140.276,137.409 145.276,129.409 153.5,123.5C 149.673,119.843 145.673,116.343 141.5,113C 147.157,112.501 152.824,112.334 158.5,112.5C 157.046,108.259 155.046,104.259 152.5,100.5C 149.387,95.547 146.054,90.7137 142.5,86C 147.477,86.6258 147.81,85.2925 143.5,82C 143.833,81.8333 144.167,81.6667 144.5,81.5C 146.729,82.9632 149.063,83.7965 151.5,84C 149.709,81.586 148.043,79.086 146.5,76.5C 149.881,69.2484 151.381,61.5817 151,53.5C 155.207,42.6731 153.707,32.6731 146.5,23.5C 141.855,26.9774 137.355,30.6441 133,34.5C 128.308,40.3586 123.808,46.3586 119.5,52.5C 110.942,47.127 101.608,45.2937 91.5,47C 87.111,48.0285 83.111,49.8619 79.5,52.5C 72.9297,40.5955 63.9297,30.9289 52.5,23.5C 46.9559,32.0289 45.1226,41.3622 47,51.5C 47.8498,53.01 48.6831,54.51 49.5,56C 47.8377,63.1945 48.8377,70.0278 52.5,76.5C 51.0295,79.136 49.3628,81.636 47.5,84C 49.9373,83.7965 52.2707,82.9632 54.5,81.5C 54.8333,81.6667 55.1667,81.8333 55.5,82C 51.3973,85.584 51.7306,86.9174 56.5,86C 54.6991,88.4426 53.0324,90.9426 51.5,93.5C 47.1669,99.1873 43.1669,105.187 39.5,111.5C 45.4725,112.33 51.4725,112.83 57.5,113C 53.1667,116.5 48.8333,120 44.5,123.5C 53.1115,129.629 58.2782,137.962 60,148.5C 66.3333,142.167 72.6667,135.833 79,129.5C 80.1667,130.667 81.3333,131.833 82.5,133C 78.6295,136.702 74.9629,140.536 71.5,144.5C 66.202,149.297 61.0354,154.297 56,159.5C 55.3015,149.695 52.3015,140.695 47,132.5C 43.2382,128.87 38.7382,126.703 33.5,126C 35.8706,123.294 38.5372,120.961 41.5,119C 37.789,118.825 34.1224,118.325 30.5,117.5C 32.8973,112.373 35.564,107.373 38.5,102.5C 38.1667,102.167 37.8333,101.833 37.5,101.5C 35.5441,102.548 33.5441,103.048 31.5,103C 33.7954,99.7026 36.462,96.7026 39.5,94C 38.1667,93.6667 36.8333,93.3333 35.5,93C 39.182,87.323 42.8487,81.6563 46.5,76C 44.3997,65.3261 42.3997,54.6595 40.5,44C 40.7564,34.6186 43.7564,26.2853 49.5,19C 52.7829,18.2571 55.7829,18.9238 58.5,21C 67.4393,28.2691 75.2726,36.4358 82,45.5C 93.9451,40.2851 105.945,40.2851 118,45.5C 125.162,36.005 133.329,27.505 142.5,20C 144.695,18.627 147.029,18.2937 149.5,19C 155.558,26.0048 158.558,34.1715 158.5,43.5C 156.294,51.6455 155.127,59.9788 155,68.5C 154.468,71.2635 153.634,73.9302 152.5,76.5C 156.376,82.4202 160.376,88.2535 164.5,94C 162.793,94.1953 161.126,94.1953 159.5,94C 162.538,96.7026 165.205,99.7026 167.5,103C 164.812,102.993 162.312,102.16 160,100.5C 162.091,106.173 164.591,111.839 167.5,117.5C 164.215,118.324 160.882,118.824 157.5,119C 159.871,121.706 162.537,124.039 165.5,126C 154.284,127.212 147.451,133.379 145,144.5C 144.333,150.167 144.333,155.833 145,161.5C 146.642,166.402 147.809,171.402 148.5,176.5C 116.165,176.667 83.8316,176.5 51.5,176C 57.0761,170.929 62.0761,165.429 66.5,159.5 Z"/></g>
<g><path style="opacity:1" fill="#2b015e" d="M 152.5,100.5 C 151.417,100.539 150.417,100.873 149.5,101.5C 148.808,100.975 148.308,100.308 148,99.5C 146.491,100.09 144.991,100.756 143.5,101.5C 142.724,103.356 141.391,104.689 139.5,105.5C 140.833,106.5 140.833,107.5 139.5,108.5C 137.826,108.514 136.16,108.514 134.5,108.5C 132.551,110.077 130.551,111.577 128.5,113C 129.604,114.131 129.271,114.965 127.5,115.5C 125.885,114.846 124.218,114.346 122.5,114C 123.938,113.781 125.271,113.281 126.5,112.5C 124.659,111.77 122.825,111.103 121,110.5C 120.333,111.833 119.667,113.167 119,114.5C 118.333,113.167 117.667,111.833 117,110.5C 115.867,112.211 114.367,112.711 112.5,112C 112.833,111.667 113.167,111.333 113.5,111C 111.694,110.19 110.194,109.024 109,107.5C 105.492,109.238 104.992,111.404 107.5,114C 107.37,115.059 106.87,115.892 106,116.5C 105.632,115.09 104.799,114.09 103.5,113.5C 101.267,113.864 99.434,114.864 98,116.5C 97.3483,114.277 95.8483,113.11 93.5,113C 94.731,111.817 94.731,110.651 93.5,109.5C 89.9821,112.731 85.9821,113.731 81.5,112.5C 81.219,114.657 79.719,116.323 77,117.5C 75.6667,117.5 74.3333,117.5 73,117.5C 72.3333,116.833 71.6667,116.167 71,115.5C 70.2825,116.451 69.4491,116.617 68.5,116C 68.8333,115 69.1667,114 69.5,113C 68.2986,112.097 67.4652,110.931 67,109.5C 66.586,109.957 66.086,110.291 65.5,110.5C 64.5,109.167 63.5,107.833 62.5,106.5C 60.0914,107.722 58.258,107.055 57,104.5C 56.2825,105.451 55.4491,105.617 54.5,105C 55.5,104.167 56.5,103.333 57.5,102.5C 56.9747,101.808 56.3081,101.308 55.5,101C 55.8333,100.667 56.1667,100.333 56.5,100C 52.5578,99.6244 50.8911,97.4578 51.5,93.5C 53.0324,90.9426 54.6991,88.4426 56.5,86C 51.7306,86.9174 51.3973,85.584 55.5,82C 55.1667,81.8333 54.8333,81.6667 54.5,81.5C 52.2707,82.9632 49.9373,83.7965 47.5,84C 49.3628,81.636 51.0295,79.136 52.5,76.5C 48.8377,70.0278 47.8377,63.1945 49.5,56C 48.6831,54.51 47.8498,53.01 47,51.5C 45.1226,41.3622 46.9559,32.0289 52.5,23.5C 63.9297,30.9289 72.9297,40.5955 79.5,52.5C 83.111,49.8619 87.111,48.0285 91.5,47C 101.608,45.2937 110.942,47.127 119.5,52.5C 123.808,46.3586 128.308,40.3586 133,34.5C 137.355,30.6441 141.855,26.9774 146.5,23.5C 153.707,32.6731 155.207,42.6731 151,53.5C 151.381,61.5817 149.881,69.2484 146.5,76.5C 148.043,79.086 149.709,81.586 151.5,84C 149.063,83.7965 146.729,82.9632 144.5,81.5C 144.167,81.6667 143.833,81.8333 143.5,82C 147.81,85.2925 147.477,86.6258 142.5,86C 146.054,90.7137 149.387,95.547 152.5,100.5 Z"/></g>
<g><path style="opacity:1" fill="#260158" d="M 51.5,93.5 C 50.8911,97.4578 52.5578,99.6244 56.5,100C 56.1667,100.333 55.8333,100.667 55.5,101C 56.3081,101.308 56.9747,101.808 57.5,102.5C 56.5,103.333 55.5,104.167 54.5,105C 55.4491,105.617 56.2825,105.451 57,104.5C 58.258,107.055 60.0914,107.722 62.5,106.5C 63.5,107.833 64.5,109.167 65.5,110.5C 66.086,110.291 66.586,109.957 67,109.5C 67.4652,110.931 68.2986,112.097 69.5,113C 69.1667,114 68.8333,115 68.5,116C 69.4491,116.617 70.2825,116.451 71,115.5C 71.6667,116.167 72.3333,116.833 73,117.5C 74.3333,117.5 75.6667,117.5 77,117.5C 79.719,116.323 81.219,114.657 81.5,112.5C 85.9821,113.731 89.9821,112.731 93.5,109.5C 94.731,110.651 94.731,111.817 93.5,113C 95.8483,113.11 97.3483,114.277 98,116.5C 99.434,114.864 101.267,113.864 103.5,113.5C 104.799,114.09 105.632,115.09 106,116.5C 106.87,115.892 107.37,115.059 107.5,114C 104.992,111.404 105.492,109.238 109,107.5C 110.194,109.024 111.694,110.19 113.5,111C 113.167,111.333 112.833,111.667 112.5,112C 114.367,112.711 115.867,112.211 117,110.5C 117.667,111.833 118.333,113.167 119,114.5C 119.667,113.167 120.333,111.833 121,110.5C 122.825,111.103 124.659,111.77 126.5,112.5C 125.271,113.281 123.938,113.781 122.5,114C 124.218,114.346 125.885,114.846 127.5,115.5C 129.271,114.965 129.604,114.131 128.5,113C 130.551,111.577 132.551,110.077 134.5,108.5C 136.16,108.514 137.826,108.514 139.5,108.5C 140.833,107.5 140.833,106.5 139.5,105.5C 141.391,104.689 142.724,103.356 143.5,101.5C 144.991,100.756 146.491,100.09 148,99.5C 148.308,100.308 148.808,100.975 149.5,101.5C 150.417,100.873 151.417,100.539 152.5,100.5C 155.046,104.259 157.046,108.259 158.5,112.5C 152.824,112.334 147.157,112.501 141.5,113C 145.673,116.343 149.673,119.843 153.5,123.5C 145.276,129.409 140.276,137.409 138.5,147.5C 135.361,147.953 132.694,149.286 130.5,151.5C 128.758,149.027 126.925,149.027 125,151.5C 123.244,150.452 121.41,150.452 119.5,151.5C 118.353,151.182 117.519,150.516 117,149.5C 114.257,149.326 111.424,149.659 108.5,150.5C 107.353,150.182 106.519,149.516 106,148.5C 105.333,151.167 104.667,151.167 104,148.5C 103,148.833 102,149.167 101,149.5C 98.3055,148.994 96.8055,147.827 96.5,146C 97.1258,145.25 97.6258,144.416 98,143.5C 98.7175,144.451 99.5509,144.617 100.5,144C 100.014,140.241 100.014,136.741 100.5,133.5C 104.13,129.369 107.963,125.369 112,121.5C 112.167,119 111,117.833 108.5,118C 94.6319,132.035 80.6319,145.869 66.5,159.5C 67.1667,157.5 67.8333,155.5 68.5,153.5C 69.5,153.5 70.5,153.5 71.5,153.5C 71.5792,152.07 71.2458,150.736 70.5,149.5C 71.5,149.5 72.5,149.5 73.5,149.5C 72.8256,147.805 72.1589,146.138 71.5,144.5C 74.9629,140.536 78.6295,136.702 82.5,133C 81.3333,131.833 80.1667,130.667 79,129.5C 72.6667,135.833 66.3333,142.167 60,148.5C 58.2782,137.962 53.1115,129.629 44.5,123.5C 48.8333,120 53.1667,116.5 57.5,113C 51.4725,112.83 45.4725,112.33 39.5,111.5C 43.1669,105.187 47.1669,99.1873 51.5,93.5 Z"/></g>
<g><path style="opacity:1" fill="#210151" d="M 100.5,133.5 C 100.014,136.741 100.014,140.241 100.5,144C 99.5509,144.617 98.7175,144.451 98,143.5C 97.6258,144.416 97.1258,145.25 96.5,146C 96.8055,147.827 98.3055,148.994 101,149.5C 102,149.167 103,148.833 104,148.5C 104.667,151.167 105.333,151.167 106,148.5C 106.519,149.516 107.353,150.182 108.5,150.5C 111.424,149.659 114.257,149.326 117,149.5C 117.519,150.516 118.353,151.182 119.5,151.5C 121.41,150.452 123.244,150.452 125,151.5C 126.925,149.027 128.758,149.027 130.5,151.5C 132.694,149.286 135.361,147.953 138.5,147.5C 138.464,155.646 139.464,163.646 141.5,171.5C 115.498,171.667 89.4979,171.5 63.5,171C 76.0625,158.605 88.3959,146.105 100.5,133.5 Z"/></g>
</svg>